--40000LOG 06:16:09:949140500 Waiting for file /home/seluser/videos/vid_chrome_or_firefox_40000* to be created...
Won't start video recording due to VIDEO env var false
ffmpeg version 2.8.17-0ubuntu0.1 Copyright (c) 2000-2020 the FFmpeg developers
  built with gcc 5.4.0 (Ubuntu 5.4.0-6ubuntu1~16.04.12) 20160609
  configuration: --prefix=/usr --extra-version=0ubuntu0.1 --build-suffix=-ffmpeg --toolchain=hardened --libdir=/usr/lib/x86_64-linux-gnu --incdir=/usr/include/x86_64-linux-gnu --cc=cc --cxx=g++ --enable-gpl --enable-shared --disable-stripping --disable-decoder=libopenjpeg --disable-decoder=libschroedinger --enable-avresample --enable-avisynth --enable-gnutls --enable-ladspa --enable-libass --enable-libbluray --enable-libbs2b --enable-libcaca --enable-libcdio --enable-libflite --enable-libfontconfig --enable-libfreetype --enable-libfribidi --enable-libgme --enable-libgsm --enable-libmodplug --enable-libmp3lame --enable-libopenjpeg --enable-libopus --enable-libpulse --enable-librtmp --enable-libschroedinger --enable-libshine --enable-libsnappy --enable-libsoxr --enable-libspeex --enable-libssh --enable-libtheora --enable-libtwolame --enable-libvorbis --enable-libvpx --enable-libwavpack --enable-libwebp --enable-libx265 --enable-libxvid --enable-libzvbi --enable-openal --enable-opengl --enable-x11grab --enable-libdc1394 --enable-libiec61883 --enable-libzmq --enable-frei0r --enable-libx264 --enable-libopencv
  libavutil      54. 31.100 / 54. 31.100
  libavcodec     56. 60.100 / 56. 60.100
  libavformat    56. 40.101 / 56. 40.101
  libavdevice    56.  4.100 / 56.  4.100
  libavfilter     5. 40.101 /  5. 40.101
  libavresample   2.  1.  0 /  2.  1.  0
  libswscale      3.  1.101 /  3.  1.101
  libswresample   1.  2.101 /  1.  2.101
  libpostproc    53.  3.100 / 53.  3.100
Input #0, x11grab, from ':92.0':
  Duration: N/A, start: 1604463370.142665, bitrate: N/A
    Stream #0:0: Video: rawvideo (BGR[0] / 0x524742), bgr0, 1366x768, 10 fps, 10 tbr, 1000k tbn, 10 tbc
[libx264 @ 0x15da320] using cpu capabilities: MMX2 SSE2Fast SSSE3 SSE4.2 AVX FMA3 AVX2 LZCNT BMI2
[libx264 @ 0x15da320] profile Constrained Baseline, level 3.2
[libx264 @ 0x15da320] 264 - core 148 r2643 5c65704 - H.264/MPEG-4 AVC codec - Copyleft 2003-2015 - http://www.videolan.org/x264.html - options: cabac=0 ref=1 deblock=0:0:0 analyse=0:0 me=dia subme=0 psy=1 psy_rd=1.00:0.00 mixed_ref=0 me_range=16 chroma_me=1 trellis=0 8x8dct=0 cqm=0 deadzone=21,11 fast_pskip=1 chroma_qp_offset=0 threads=3 lookahead_threads=1 sliced_threads=0 nr=0 decimate=1 interlaced=0 bluray_compat=0 constrained_intra=0 bframes=0 weightp=0 keyint=250 keyint_min=10 scenecut=0 intra_refresh=0 rc=crf mbtree=0 crf=23.0 qcomp=0.60 qpmin=0 qpmax=69 qpstep=4 ip_ratio=1.40 aq=0
Output #0, matroska, to '/home/seluser/videos/vid_chrome_or_firefox_40000.mkv':
  Metadata:
    encoder         : Lavf56.40.101
    Stream #0:0: Video: h264 (libx264) (H264 / 0x34363248), yuv420p, 1366x768, q=-1--1, 10 fps, 1k tbn, 10 tbc
    Metadata:
      encoder         : Lavc56.60.100 libx264
Stream mapping:
  Stream #0:0 -> #0:0 (rawvideo (native) -> h264 (libx264))
Press [q] to stop, [?] for help
[swscaler @ 0x15e5ca0] Warning: data is not aligned! This can lead to a speedloss
frame=    7 fps=0.0 q=10.0 size=      24kB time=00:00:00.30 bitrate= 658.1kbits/s    
frame=   13 fps= 12 q=9.0 size=      28kB time=00:00:00.90 bitrate= 254.8kbits/s    
frame=   19 fps= 11 q=9.0 size=      29kB time=00:00:01.50 bitrate= 157.7kbits/s    
frame=   24 fps= 11 q=9.0 size=      30kB time=00:00:02.00 bitrate= 121.2kbits/s    
frame=   30 fps= 11 q=12.0 size=      38kB time=00:00:02.60 bitrate= 120.0kbits/s    
frame=   35 fps= 11 q=9.0 size=      55kB time=00:00:03.10 bitrate= 144.6kbits/s    
frame=   41 fps= 11 q=9.0 size=      56kB time=00:00:03.70 bitrate= 124.4kbits/s    
frame=   46 fps= 10 q=9.0 size=      58kB time=00:00:04.20 bitrate= 112.5kbits/s    
frame=   52 fps= 10 q=12.0 size=      84kB time=00:00:04.80 bitrate= 143.5kbits/s    
frame=   57 fps= 10 q=10.0 size=      95kB time=00:00:05.30 bitrate= 146.7kbits/s    
frame=   63 fps= 10 q=9.0 size=     101kB time=00:00:05.90 bitrate= 139.6kbits/s    
frame=   68 fps= 10 q=9.0 size=     101kB time=00:00:06.40 bitrate= 129.7kbits/s    
frame=   74 fps= 10 q=9.0 size=     103kB time=00:00:07.00 bitrate= 120.5kbits/s    
frame=   80 fps= 10 q=9.0 size=     104kB time=00:00:07.60 bitrate= 112.0kbits/s    
frame=   85 fps= 10 q=9.0 size=     105kB time=00:00:08.10 bitrate= 106.5kbits/s    
frame=   91 fps= 10 q=12.0 size=     107kB time=00:00:08.70 bitrate= 100.5kbits/s    
frame=   97 fps= 10 q=9.0 size=     128kB time=00:00:09.30 bitrate= 113.0kbits/s    
frame=  102 fps= 10 q=9.0 size=     131kB time=00:00:09.80 bitrate= 109.4kbits/s    
frame=  107 fps= 10 q=9.0 size=     132kB time=00:00:10.30 bitrate= 104.7kbits/s    
frame=  113 fps= 10 q=16.0 size=     133kB time=00:00:10.90 bitrate= 100.1kbits/s    
frame=  119 fps= 10 q=13.0 size=     228kB time=00:00:11.50 bitrate= 162.3kbits/s    
frame=  124 fps= 10 q=10.0 size=     252kB time=00:00:12.00 bitrate= 172.3kbits/s    
frame=  129 fps= 10 q=9.0 size=     259kB time=00:00:12.50 bitrate= 169.8kbits/s    
frame=  135 fps= 10 q=13.0 size=     275kB time=00:00:13.10 bitrate= 171.7kbits/s    
frame=  141 fps= 10 q=15.0 size=     290kB time=00:00:13.70 bitrate= 173.3kbits/s    
frame=  147 fps= 10 q=13.0 size=     319kB time=00:00:14.30 bitrate= 182.8kbits/s    
frame=  152 fps= 10 q=15.0 size=     339kB time=00:00:14.80 bitrate= 187.6kbits/s    
frame=  157 fps= 10 q=11.0 size=     365kB time=00:00:15.30 bitrate= 195.3kbits/s    
frame=  163 fps= 10 q=9.0 size=     378kB time=00:00:15.90 bitrate= 194.6kbits/s    
frame=  168 fps= 10 q=9.0 size=     386kB time=00:00:16.40 bitrate= 193.0kbits/s    
frame=  174 fps= 10 q=16.0 size=     406kB time=00:00:17.00 bitrate= 195.5kbits/s    
frame=  179 fps= 10 q=10.0 size=     466kB time=00:00:17.50 bitrate= 218.0kbits/s    
frame=  185 fps= 10 q=9.0 size=     482kB time=00:00:18.10 bitrate= 218.0kbits/s    
frame=  190 fps= 10 q=11.0 size=     482kB time=00:00:18.60 bitrate= 212.4kbits/s    
frame=  196 fps= 10 q=16.0 size=     569kB time=00:00:19.20 bitrate= 242.6kbits/s    
frame=  202 fps= 10 q=10.0 size=     678kB time=00:00:19.80 bitrate= 280.7kbits/s    
frame=  208 fps= 10 q=9.0 size=     690kB time=00:00:20.40 bitrate= 277.2kbits/s    
frame=  213 fps= 10 q=9.0 size=     691kB time=00:00:20.90 bitrate= 270.7kbits/s    
frame=  219 fps= 10 q=9.0 size=     691kB time=00:00:21.50 bitrate= 263.4kbits/s    
frame=  224 fps= 10 q=13.0 size=     692kB time=00:00:22.00 bitrate= 257.6kbits/s    
frame=  230 fps= 10 q=10.0 size=     738kB time=00:00:22.60 bitrate= 267.5kbits/s    
frame=  236 fps= 10 q=9.0 size=     745kB time=00:00:23.20 bitrate= 262.9kbits/s    
frame=  242 fps= 10 q=9.0 size=     745kB time=00:00:23.80 bitrate= 256.4kbits/s    
frame=  248 fps= 10 q=9.0 size=     745kB time=00:00:24.40 bitrate= 250.2kbits/s    
frame=  254 fps= 10 q=18.0 size=     746kB time=00:00:25.00 bitrate= 244.4kbits/s    
frame=  259 fps= 10 q=10.0 size=     864kB time=00:00:25.50 bitrate= 277.6kbits/s    
frame=  265 fps= 10 q=9.0 size=     864kB time=00:00:26.10 bitrate= 271.3kbits/s    
frame=  271 fps= 10 q=9.0 size=     865kB time=00:00:26.70 bitrate= 265.3kbits/s    
frame=  276 fps= 10 q=9.0 size=     865kB time=00:00:27.20 bitrate= 260.5kbits/s    
frame=  282 fps= 10 q=9.0 size=     865kB time=00:00:27.80 bitrate= 254.9kbits/s    
frame=  288 fps= 10 q=9.0 size=     865kB time=00:00:28.40 bitrate= 249.6kbits/s    
frame=  294 fps= 10 q=9.0 size=     866kB time=00:00:29.00 bitrate= 244.5kbits/s    
frame=  299 fps= 10 q=9.0 size=     866kB time=00:00:29.50 bitrate= 240.5kbits/s    
frame=  305 fps= 10 q=9.0 size=     866kB time=00:00:30.10 bitrate= 235.8kbits/s    
frame=  311 fps= 10 q=9.0 size=     867kB time=00:00:30.70 bitrate= 231.2kbits/s    
frame=  317 fps= 10 q=9.0 size=     867kB time=00:00:31.30 bitrate= 226.9kbits/s    
frame=  322 fps= 10 q=9.0 size=     867kB time=00:00:31.80 bitrate= 223.3kbits/s    
frame=  328 fps= 10 q=9.0 size=     867kB time=00:00:32.40 bitrate= 219.3kbits/s    
frame=  334 fps= 10 q=9.0 size=     868kB time=00:00:33.00 bitrate= 215.4kbits/s    
frame=  339 fps= 10 q=9.0 size=     868kB time=00:00:33.50 bitrate= 212.2kbits/s    
frame=  345 fps= 10 q=9.0 size=     868kB time=00:00:34.10 bitrate= 208.5kbits/s    
frame=  351 fps= 10 q=9.0 size=     868kB time=00:00:34.70 bitrate= 205.0kbits/s    
frame=  357 fps= 10 q=9.0 size=     869kB time=00:00:35.30 bitrate= 201.6kbits/s    
frame=  363 fps= 10 q=9.0 size=     869kB time=00:00:35.90 bitrate= 198.3kbits/s    
frame=  368 fps= 10 q=9.0 size=     869kB time=00:00:36.40 bitrate= 195.6kbits/s    
frame=  373 fps= 10 q=9.0 size=     869kB time=00:00:36.90 bitrate= 193.0kbits/s    
frame=  378 fps= 10 q=9.0 size=     870kB time=00:00:37.40 bitrate= 190.5kbits/s    
frame=  384 fps= 10 q=10.0 size=     870kB time=00:00:38.00 bitrate= 187.5kbits/s    
frame=  390 fps= 10 q=10.0 size=     875kB time=00:00:38.60 bitrate= 185.6kbits/s    
frame=  396 fps= 10 q=12.0 size=     899kB time=00:00:39.20 bitrate= 188.0kbits/s    
frame=  402 fps= 10 q=10.0 size=     907kB time=00:00:39.80 bitrate= 186.6kbits/s    
frame=  407 fps= 10 q=14.0 size=     929kB time=00:00:40.30 bitrate= 188.8kbits/s    
frame=  413 fps= 10 q=9.0 size=     946kB time=00:00:40.90 bitrate= 189.5kbits/s    
frame=  419 fps= 10 q=9.0 size=     948kB time=00:00:41.50 bitrate= 187.2kbits/s    
frame=  425 fps= 10 q=10.0 size=     949kB time=00:00:42.10 bitrate= 184.6kbits/s    
frame=  430 fps= 10 q=19.0 size=     950kB time=00:00:42.60 bitrate= 182.6kbits/s    
frame=  436 fps= 10 q=15.0 size=    1102kB time=00:00:43.20 bitrate= 209.0kbits/s    
frame=  441 fps= 10 q=10.0 size=    1145kB time=00:00:43.70 bitrate= 214.6kbits/s    
frame=  447 fps= 10 q=9.0 size=    1157kB time=00:00:44.30 bitrate= 214.0kbits/s    
frame=  453 fps= 10 q=9.0 size=    1158kB time=00:00:44.90 bitrate= 211.3kbits/s    
frame=  458 fps= 10 q=9.0 size=    1158kB time=00:00:45.40 bitrate= 209.0kbits/s    
frame=  464 fps= 10 q=9.0 size=    1159kB time=00:00:46.00 bitrate= 206.4kbits/s    
frame=  469 fps= 10 q=9.0 size=    1159kB time=00:00:46.50 bitrate= 204.2kbits/s    
frame=  475 fps= 10 q=9.0 size=    1160kB time=00:00:47.10 bitrate= 201.7kbits/s    
frame=  480 fps= 10 q=9.0 size=    1160kB time=00:00:47.60 bitrate= 199.7kbits/s    
frame=  486 fps= 10 q=9.0 size=    1161kB time=00:00:48.20 bitrate= 197.3kbits/s    
frame=  492 fps= 10 q=9.0 size=    1161kB time=00:00:48.80 bitrate= 194.9kbits/s    
frame=  497 fps= 10 q=9.0 size=    1162kB time=00:00:49.30 bitrate= 193.1kbits/s    
frame=  503 fps= 10 q=6.0 size=    1162kB time=00:00:49.90 bitrate= 190.8kbits/s    
frame=  509 fps= 10 q=13.0 size=    1310kB time=00:00:50.50 bitrate= 212.5kbits/s    
--40000LOG 06:17:01:395168700 Trapped SIGTERM or SIGINT so shutting down ffmpeg gracefully...
--40000LOG 06:17:01:429441600 Will kill VID_TOOL_PID=522 ...
frame=  514 fps= 10 q=-1.0 Lsize=    1325kB time=00:00:51.40 bitrate= 211.1kbits/s    
video:1321kB audio:0kB subtitle:0kB other streams:0kB global headers:0kB muxing overhead: 0.317761%
[libx264 @ 0x15da320] frame I:3     Avg QP:11.00  size: 88194
[libx264 @ 0x15da320] frame P:511   Avg QP:10.13  size:  2127
[libx264 @ 0x15da320] mb I  I16..4: 100.0%  0.0%  0.0%
[libx264 @ 0x15da320] mb P  I16..4:  1.8%  0.0%  0.0%  P16..4:  1.9%  0.0%  0.0%  0.0%  0.0%    skip:96.3%
[libx264 @ 0x15da320] coded y,uvDC,uvAC intra: 14.5% 9.4% 8.6% inter: 0.8% 0.9% 0.6%
[libx264 @ 0x15da320] i16 v,h,dc,p: 74% 24%  1%  1%
[libx264 @ 0x15da320] i8c dc,h,v,p: 82% 15%  3%  1%
[libx264 @ 0x15da320] kb/s:210.38
Exiting normally, received signal 2.
--40000LOG 06:17:02:448696400 Tried to kill -SIGTERM VID_TOOL_PID=522
--40000LOG 06:17:02:456092600 Waiting up to 6s for VID_TOOL_PID=522 to end with SIGTERM...
--40000LOG 06:17:02:480453800 wait_pid successfully managed to SIGTERM:VID_TOOL_PID=522 within less than 6s
--40000LOG 06:17:02:491118700 Will try to fix the videos...
--40000LOG 06:17:03:065826200 Fixing perms for /home/seluser/videos/vid_chrome_or_firefox_40000.mkv*
--40000LOG 06:17:03:105766600 Changing video encoding from mkv to mp4...
--40000LOG 06:17:12:788725800 Conversion from mkv to mp4 succeeded!
--40000LOG 06:17:12:804114200 Cleaning up /home/seluser/videos/vid_chrome_or_firefox_40000.mkv ...
--40000LOG 06:17:12:832794800 Optimizing /home/seluser/videos/vid_chrome_or_firefox_40000.mp4 for HTTP streaming...
--40000LOG 06:17:12:991549400 Succeeded to mp4box_retry.sh within 8s
--40000LOG 06:17:13:002206800 ffmpeg shutdown complete.
